<?xml version="1.0" encoding="UTF-8" standalone="no"?>
<!-- Created with Inkscape (http://www.inkscape.org/) -->

<svg
   xmlns:dc="http://purl.org/dc/elements/1.1/"
   xmlns:cc="http://creativecommons.org/ns#"
   xmlns:rdf="http://www.w3.org/1999/02/22-rdf-syntax-ns#"
   xmlns:svg="http://www.w3.org/2000/svg"
   xmlns="http://www.w3.org/2000/svg"
   xmlns:xlink="http://www.w3.org/1999/xlink"
   xmlns:sodipodi="http://sodipodi.sourceforge.net/DTD/sodipodi-0.dtd"
   xmlns:inkscape="http://www.inkscape.org/namespaces/inkscape"
   width="40"
   height="30"
   viewBox="0 0 10.583333 7.9375002"
   version="1.1"
   id="svg8"
   inkscape:version="0.92.4 (unknown)"
   sodipodi:docname="dcr-logo-thick.svg"
   inkscape:export-filename="/home/buck/websites/winatoms/img/dcr-logo-thick.png"
   inkscape:export-xdpi="96"
   inkscape:export-ydpi="96">
  <defs
     id="defs2">
    <linearGradient
       id="_Pad__1_"
       gradientUnits="userSpaceOnUse"
       x1="-7558.0513"
       y1="912.33508"
       x2="-7500.7217"
       y2="912.33508"
       gradientTransform="matrix(0.45356054,0,0,0.45356054,3396.9996,-315.69066)">
      <stop
         offset="0"
         style="stop-color:#62D0C9"
         id="stop1559" />
      <stop
         offset="1"
         style="stop-color:#7DE2AC"
         id="stop1561" />
    </linearGradient>
    <linearGradient
       id="_Pad_3_1_"
       gradientUnits="userSpaceOnUse"
       x1="-7603.021"
       y1="912.38062"
       x2="-7545.6909"
       y2="912.38062"
       gradientTransform="matrix(0.45356054,0,0,0.45356054,3396.9996,-315.69066)">
      <stop
         offset="0"
         style="stop-color:#3268FB"
         id="stop1566" />
      <stop
         offset="1"
         style="stop-color:#4795FA"
         id="stop1568" />
    </linearGradient>
    <linearGradient
       id="linearGradient1737"
       gradientUnits="userSpaceOnUse"
       x1="-7558.0513"
       y1="912.33508"
       x2="-7500.7217"
       y2="912.33508"
       gradientTransform="translate(7603.2002,-872.83)">
      <stop
         offset="0"
         style="stop-color:#62D0C9"
         id="stop1733" />
      <stop
         offset="1"
         style="stop-color:#7DE2AC"
         id="stop1735" />
    </linearGradient>
    <linearGradient
       id="linearGradient1745"
       gradientUnits="userSpaceOnUse"
       x1="-7603.021"
       y1="912.38062"
       x2="-7545.6909"
       y2="912.38062"
       gradientTransform="translate(7603.2002,-872.83)">
      <stop
         offset="0"
         style="stop-color:#3268FB"
         id="stop1741" />
      <stop
         offset="1"
         style="stop-color:#4795FA"
         id="stop1743" />
    </linearGradient>
    <linearGradient
       inkscape:collect="always"
       xlink:href="#_Pad__1_"
       id="linearGradient1946"
       gradientUnits="userSpaceOnUse"
       gradientTransform="matrix(0.45356054,0,0,0.45356054,3396.9996,-315.69066)"
       x1="-7558.0513"
       y1="912.33508"
       x2="-7500.7217"
       y2="912.33508" />
    <linearGradient
       inkscape:collect="always"
       xlink:href="#_Pad_3_1_"
       id="linearGradient1948"
       gradientUnits="userSpaceOnUse"
       gradientTransform="matrix(0.45356054,0,0,0.45356054,3396.9996,-315.69066)"
       x1="-7603.021"
       y1="912.38062"
       x2="-7545.6909"
       y2="912.38062" />
    <linearGradient
       inkscape:collect="always"
       xlink:href="#_Pad__1_"
       id="linearGradient1950"
       gradientUnits="userSpaceOnUse"
       gradientTransform="matrix(0.45356054,0,0,0.45356054,3396.9996,-315.69066)"
       x1="-7558.0513"
       y1="912.33508"
       x2="-7500.7217"
       y2="912.33508" />
    <linearGradient
       inkscape:collect="always"
       xlink:href="#_Pad_3_1_"
       id="linearGradient1952"
       gradientUnits="userSpaceOnUse"
       gradientTransform="matrix(0.45356054,0,0,0.45356054,3396.9996,-315.69066)"
       x1="-7603.021"
       y1="912.38062"
       x2="-7545.6909"
       y2="912.38062" />
  </defs>
  <sodipodi:namedview
     id="base"
     pagecolor="#ffffff"
     bordercolor="#666666"
     borderopacity="1.0"
     inkscape:pageopacity="0.0"
     inkscape:pageshadow="2"
     inkscape:zoom="11.2"
     inkscape:cx="44.414255"
     inkscape:cy="22.47123"
     inkscape:document-units="mm"
     inkscape:current-layer="layer1"
     showgrid="false"
     inkscape:snap-global="false"
     showguides="true"
     inkscape:guide-bbox="true"
     units="px"
     inkscape:window-width="1920"
     inkscape:window-height="1027"
     inkscape:window-x="1920"
     inkscape:window-y="0"
     inkscape:window-maximized="1" />
  <metadata
     id="metadata5">
    <rdf:RDF>
      <cc:Work
         rdf:about="">
        <dc:format>image/svg+xml</dc:format>
        <dc:type
           rdf:resource="http://purl.org/dc/dcmitype/StillImage" />
        <dc:title></dc:title>
      </cc:Work>
    </rdf:RDF>
  </metadata>
  <g
     inkscape:label="Layer 1"
     inkscape:groupmode="layer"
     id="layer1"
     transform="translate(0,-289.06248)">
    <g
       id="g886"
       transform="translate(-31.240414,-123.38872)">
      <path
         style="fill:#000000;stroke-width:0.26458332"
         d="M 9.2259559,106.73318 C 8.8328567,106.09713 5.9312551,91.744684 5.9312551,90.436314 v -1.40985 h 2.9169654 c 3.4968325,0 3.2225035,-0.34975 3.8794385,4.94604 0.249294,2.00966 0.521398,3.36659 0.619478,3.08922 0.0962,-0.27205 0.449372,-2.19716 0.784831,-4.27802 0.486162,-3.01568 0.686793,-3.75389 0.988746,-3.63802 0.208351,0.0799 1.837398,0.14537 3.620103,0.14537 h 3.241282 l 0.614369,4.29948 c 0.633809,4.43552 1.034213,5.95979 1.059906,4.03489 0.0078,-0.58208 0.246779,-2.60614 0.531132,-4.49791 0.284352,-1.89177 0.519741,-3.52888 0.523086,-3.63802 0.008,-0.2595 6.356599,-0.2595 6.354392,0 -0.0011,0.10914 -0.834366,3.99854 -1.852083,8.64312 -1.017718,4.644576 -1.850395,8.543876 -1.850395,8.665106 0,0.12122 -1.702095,0.22041 -3.782434,0.22041 h -3.782434 l -0.637216,-4.36562 c -0.350469,-2.4011 -0.731967,-4.365626 -0.847775,-4.365626 -0.115807,0 -0.210558,0.35797 -0.210558,0.79549 0,1.138136 -0.754184,6.057536 -1.084786,7.075866 l -0.279169,0.85989 h -3.668033 c -2.334776,0 -3.7320461,-0.10357 -3.8441451,-0.28495 z"
         id="path866"
         inkscape:connector-curvature="0" />
      <path
         style="fill:#000000;stroke-width:0.99999994"
         d="m 262.87695,337.47852 -6.4082,19.25 c -8.17299,24.5479 -14.03969,43.76059 -14.04687,46 v 0.002 c -0.005,1.57652 1.27521,1.75 12.89648,1.75 h 12.90039 l 1.20703,-5.03906 1.20899,-5.03711 8.64062,0.28711 8.64258,0.28711 1.5,4.74609 1.5,4.74414 13.25,0.004 c 8.58275,0.003 13.25,-0.36345 13.25,-1.04297 0,-0.57695 -4.58989,-15.65199 -10.19922,-33.5 l -10.19922,-32.45117 h -17.07031 z m 16.83789,14.05468 c 0.0546,-0.006 0.10569,0.0139 0.15039,0.0586 0.59833,0.5983 5.55274,22.80171 5.55274,24.88476 0,1.29967 -1.15451,1.88743 -4.64063,2.36524 -6.57115,0.9007 -7.35334,0.81866 -7.98828,-0.83594 -1.03478,-2.69658 5.2325,-26.30063 6.92578,-26.47266 z"
         transform="scale(0.26458333)"
         id="path868"
         inkscape:connector-curvature="0" />
      <path
         style="fill:#000000;stroke-width:0.26458332"
         d="m 153.72935,106.59962 c -0.20645,-0.538 -0.20125,-2.71005 0.008,-3.49245 0.15768,-0.58857 0.23536,-0.6018 3.10524,-0.52917 l 2.94351,0.0745 0.0767,2.01692 c 0.0911,2.39752 0.17903,2.33952 -3.55409,2.3451 -1.96406,0.003 -2.4493,-0.0751 -2.57969,-0.4149 z"
         id="path870"
         inkscape:connector-curvature="0" />
      <path
         style="fill:#000000;stroke-width:0.99999994"
         d="m 399.76953,340.8418 c -4.00356,0.13606 -8.66412,1.01157 -14.67383,2.69726 -5.04657,1.41555 -11.52468,7.37155 -13.9414,12.81641 -2.49958,5.63149 -3.39485,18.21428 -1.77539,24.96484 2.2089,9.20773 9.89864,17.29022 18.85937,19.82617 5.76665,1.63197 16.94251,1.06055 23.41797,-1.19726 6.37784,-2.2238 12.85279,-9.45131 15.22656,-16.99805 2.1295,-6.77029 1.73919,-19.02004 -0.77929,-24.47265 -5.21246,-11.28526 -9.43033,-14.94923 -19.68555,-17.09766 -2.07988,-0.43573 -4.2463,-0.6207 -6.64844,-0.53906 z m -0.7207,15.63672 c 3.2499,0 5.25032,3.56997 5.99609,10.70507 0.88354,8.45337 -0.27833,15.03615 -3.16211,17.91993 -2.88094,2.88094 -3.89159,2.94821 -6.41015,0.42968 -2.54593,-2.546 -3.35085,-7.22633 -2.91016,-16.92968 0.39602,-8.72115 2.21716,-12.125 6.48633,-12.125 z"
         transform="scale(0.26458333)"
         id="path872"
         inkscape:connector-curvature="0" />
      <path
         style="fill:#000000;stroke-width:0.26458332"
         d="m 141.05958,106.1132 c -0.69541,-0.18703 -1.5702,-0.62547 -1.94398,-0.97433 -0.86436,-0.80673 -1.68643,-2.40052 -1.68643,-3.26957 v -0.672 h 2.87999 c 2.78002,0 2.89503,0.023 3.31339,0.66146 0.64118,0.97856 2.27329,0.77124 2.27329,-0.28878 0,-0.38746 -1.71593,-1.09663 -3.23705,-1.33782 -4.1386,-0.656216 -6.18665,-3.648206 -4.71541,-6.888716 1.35554,-2.98568 7.04819,-4.17657 10.85547,-2.27092 1.61846,0.81008 2.65324,2.09114 2.65324,3.28474 v 0.75462 h -2.39056 c -1.72584,0 -2.56669,-0.1154 -3.02398,-0.41503 -0.76965,-0.50429 -2.39067,-0.41372 -2.39067,0.13358 0,0.25445 0.87417,0.63025 2.64583,1.13744 4.22389,1.2092 5.52234,2.40717 5.52464,5.097136 0.002,2.64652 -1.52377,4.34969 -4.53146,5.05745 -1.88615,0.44385 -4.55631,0.43988 -6.22631,-0.009 z"
         id="path874"
         inkscape:connector-curvature="0" />
      <path
         style="fill:#000000;stroke-width:0.26458332"
         d="m 31.595839,98.427324 v -7.81336 h 3.311287 3.311289 l -0.07014,7.73907 -0.07014,7.739056 -3.241146,0.0743 -3.241146,0.0743 z"
         id="path876"
         inkscape:connector-curvature="0" />
      <path
         style="fill:#000000;stroke-width:0.26458332"
         d="m 40.425194,105.90275 c -0.146251,-0.20173 -0.189368,-3.35042 -0.106093,-7.748156 l 0.14028,-7.40833 3.616269,-0.0735 3.616272,-0.0735 0.51389,1.39638 c 0.282641,0.76802 0.917506,2.52748 1.410814,3.90993 l 0.896921,2.51354 0.168275,-3.43958 c 0.09255,-1.89177 0.181846,-3.64794 0.198438,-3.9026 0.02647,-0.40642 0.337926,-0.46302 2.547699,-0.46302 h 2.51754 l -0.07014,7.73906 -0.07014,7.739056 -3.479734,0.0737 -3.479731,0.0736 -0.6839,-1.79344 c -0.376143,-0.98639 -0.969862,-2.62687 -1.319377,-3.64552 -0.385215,-1.122686 -0.69786,-1.695776 -0.793877,-1.455196 -0.08712,0.21828 -0.189706,1.825616 -0.227973,3.571866 l -0.06958,3.175 -2.539738,0.0753 c -1.836145,0.0544 -2.607995,-0.0189 -2.786115,-0.26459 z"
         id="path878"
         inkscape:connector-curvature="0" />
      <path
         style="fill:#000000;stroke-width:0.26458332"
         d="m 87.0168,105.94485 c -0.09502,-0.15375 -0.131815,-2.6243 -0.08176,-5.49011 l 0.09101,-5.210556 -1.785937,-0.0782 -1.785938,-0.0782 v -2.23687 -2.23687 h 6.879167 6.879167 v 2.24896 2.24896 h -1.852084 -1.852083 v 5.556246 5.55625 h -3.159384 c -1.933594,0 -3.226417,-0.10846 -3.332155,-0.27954 z"
         id="path880"
         inkscape:connector-curvature="0" />
      <path
         style="fill:#000000;stroke-width:0.26458332"
         d="m 123.01057,105.96175 c -0.0893,-0.14447 -0.56241,-2.11868 -1.05138,-4.38715 -0.48897,-2.268466 -0.95873,-4.194176 -1.04391,-4.279346 -0.0852,-0.0852 -0.15486,1.82951 -0.15486,4.254856 v 4.40972 h -2.73511 -2.7351 l -0.0619,-7.679396 -0.0618,-7.6794 4.44899,0.0726 4.44899,0.0726 0.63307,3.40824 c 0.36063,1.94149 0.71672,3.25093 0.82745,3.04271 0.10691,-0.20105 0.53189,-1.76452 0.9444,-3.47439 l 0.75002,-3.10885 h 4.17882 4.17883 v 7.80521 7.805196 h -2.63022 c -1.81572,0 -2.69529,-0.10241 -2.84034,-0.33073 -0.11557,-0.1819 -0.25654,-1.69994 -0.31328,-3.37343 -0.11557,-3.408866 -0.19272,-3.362706 -1.24814,0.74684 -0.34842,1.35664 -0.70172,2.57703 -0.78512,2.71197 -0.20431,0.33059 -4.54419,0.31476 -4.74942,-0.0173 z"
         id="path882"
         inkscape:connector-curvature="0" />
      <path
         style="fill:#000000;stroke-width:0.26458332"
         d="m 154.24924,100.43436 c -0.0795,-0.12858 -0.32246,-2.593436 -0.53998,-5.477446 -0.31229,-4.14063 -0.32693,-5.28721 -0.0696,-5.4507 0.17926,-0.11386 1.79816,-0.20885 3.59756,-0.21108 l 3.27163,-0.004 -0.15475,1.38906 c -0.0851,0.76399 -0.29233,3.23453 -0.46049,5.49011 -0.18011,2.41588 -0.42803,4.180906 -0.60334,4.295416 -0.42416,0.27706 -4.86755,0.24946 -5.04107,-0.0313 z"
         id="path884"
         inkscape:connector-curvature="0" />
    </g>
    <g
       id="g1908"
       transform="translate(-25.324405,32.127976)">
      <g
         transform="matrix(0.50542186,0,0,0.50542186,34.37106,96.171502)"
         id="g1885">
        <path
           id="_Pad_"
           class="st0"
           d="m -33.891238,102.46041 h 11.475082 c 4.263469,0 7.755885,-3.447063 7.755885,-7.755888 0,-4.308825 -3.44706,-7.710529 -7.710529,-7.710529 h -3.67384 l -7.846598,-6.803408 h 14.309903 c 8.028022,-0.04536 14.5592934,6.44056 14.5592934,14.468581 0.045356,5.941644 -3.5831283,11.293654 -9.1165674,13.516104 l 9.0712113,7.8466 H -18.243399 Z"
           style="fill:url(#linearGradient1950);stroke-width:0.45356053"
           inkscape:connector-curvature="0"
           sodipodi:nodetypes="cssscccccccc" />
        <path
           id="_Pad_2"
           class="st1"
           d="m -25.432266,93.797401 h -11.475082 c -4.263469,0 -7.755885,3.44706 -7.755885,7.755889 0,4.30882 3.44706,7.75588 7.755885,7.75588 h 3.673841 l 7.801241,6.80341 h -11.475082 c -8.028021,0 -14.559293,-6.48592 -14.604649,-14.46858 -0.04536,-5.987001 3.583128,-11.339015 9.116567,-13.561462 l -9.071211,-7.891953 h 10.386536 z"
           inkscape:connector-curvature="0"
           style="fill:#4971fa;stroke-width:0.45356053" />
        <path
           id="_Pad_3"
           class="st2"
           d="m -25.432266,93.797401 h -11.475082 c -4.263469,0 -7.755885,3.44706 -7.755885,7.755889 0,4.30882 3.44706,7.75588 7.755885,7.75588 h 3.673841 l 7.801241,6.80341 h -14.120915 c -8.028021,0 -14.559293,-6.48592 -14.604649,-14.46858 -0.04536,-5.987001 3.583128,-11.339015 9.116567,-13.561462 l -9.071211,-7.891953 h 13.032369 z"
           style="fill:url(#linearGradient1952);stroke-width:0.45356053"
           inkscape:connector-curvature="0"
           sodipodi:nodetypes="csssccsccccc" />
      </g>
      <g
         id="g1853">
        <path
           inkscape:connector-curvature="0"
           id="path866-6"
           d="M 40.397261,154.43837 C 40.004162,153.80232 37.10256,139.44988 37.10256,138.14151 v -1.40985 h 2.916965 c 3.496833,0 3.222504,-0.34975 3.879439,4.94604 0.249294,2.00966 0.521398,3.36659 0.619478,3.08922 0.0962,-0.27205 0.449372,-2.19716 0.784831,-4.27802 0.486162,-3.01568 0.686793,-3.75389 0.988746,-3.63802 0.208351,0.0799 1.837398,0.14537 3.620103,0.14537 h 3.241282 l 0.614369,4.29948 c 0.633809,4.43552 1.034213,5.95979 1.059906,4.03489 0.0078,-0.58208 0.246779,-2.60614 0.531132,-4.49791 0.284352,-1.89177 0.519741,-3.52888 0.523086,-3.63802 0.008,-0.2595 6.356599,-0.2595 6.354392,0 -0.0011,0.10914 -0.834366,3.99854 -1.852083,8.64312 -1.017718,4.64457 -1.850395,8.54387 -1.850395,8.6651 0,0.12122 -1.702095,0.22041 -3.782434,0.22041 h -3.782434 l -0.637216,-4.36562 c -0.350469,-2.4011 -0.731967,-4.36562 -0.847775,-4.36562 -0.115807,0 -0.210558,0.35797 -0.210558,0.79549 0,1.13813 -0.754184,6.05753 -1.084786,7.07586 l -0.279169,0.85989 h -3.668033 c -2.334776,0 -3.732046,-0.10357 -3.844145,-0.28495 z"
           style="fill:#000000;stroke-width:0.26458332" />
        <path
           inkscape:connector-curvature="0"
           id="path876-6"
           d="m 62.767144,146.13252 v -7.81336 h 3.311287 3.311289 l -0.07014,7.73907 -0.07014,7.73905 -3.241146,0.0743 -3.241146,0.0743 z"
           style="fill:#000000;stroke-width:0.26458332" />
        <path
           inkscape:connector-curvature="0"
           id="path878-2"
           d="m 71.596499,153.60794 c -0.146251,-0.20173 -0.189368,-3.35042 -0.106093,-7.74815 l 0.14028,-7.40833 3.616269,-0.0735 3.616272,-0.0735 0.51389,1.39638 c 0.282641,0.76802 0.917506,2.52748 1.410814,3.90993 l 0.896921,2.51354 0.168275,-3.43958 c 0.09255,-1.89177 0.181846,-3.64794 0.198438,-3.9026 0.02647,-0.40642 0.337926,-0.46302 2.547699,-0.46302 h 2.51754 l -0.07014,7.73906 -0.07014,7.73905 -3.479734,0.0737 -3.479731,0.0736 -0.6839,-1.79344 c -0.376143,-0.98639 -0.969862,-2.62687 -1.319377,-3.64552 -0.385215,-1.12268 -0.69786,-1.69577 -0.793877,-1.45519 -0.08712,0.21828 -0.189706,1.82561 -0.227973,3.57186 l -0.06958,3.175 -2.539738,0.0753 c -1.836145,0.0544 -2.607995,-0.0189 -2.786115,-0.26459 z"
           style="fill:#000000;stroke-width:0.26458332" />
      </g>
      <g
         id="g1848">
        <path
           inkscape:connector-curvature="0"
           id="path868-7"
           d="m 100.72416,136.99639 -1.695499,5.09322 c -2.162437,6.49497 -3.714668,11.57833 -3.716568,12.17084 v 5.3e-4 c -0.0013,0.41712 0.3374,0.46302 3.412194,0.46302 h 3.413233 l 0.31936,-1.33325 0.31987,-1.33274 2.28617,0.076 2.28668,0.076 0.39688,1.25574 0.39687,1.25522 3.50573,0.001 c 2.27085,7.9e-4 3.50573,-0.0962 3.50573,-0.27596 0,-0.15265 -1.21441,-4.14125 -2.69855,-8.86354 l -2.69854,-8.58604 h -4.51652 z m 4.45503,3.71863 c 0.0144,-0.002 0.028,0.004 0.0398,0.0155 0.15831,0.1583 1.46916,6.03296 1.46916,6.5841 0,0.34387 -0.30546,0.49938 -1.22783,0.6258 -1.73862,0.23831 -1.94557,0.2166 -2.11357,-0.22118 -0.27378,-0.71347 1.38444,-6.9587 1.83245,-7.00422 z"
           style="fill:#000000;stroke-width:0.26458332" />
        <path
           inkscape:connector-curvature="0"
           id="path872-3"
           d="m 136.94366,137.88625 c -1.05928,0.036 -2.29238,0.26765 -3.88245,0.71365 -1.33524,0.37453 -3.04924,1.95039 -3.68866,3.39101 -0.66135,1.49 -0.89823,4.8192 -0.46974,6.60528 0.58444,2.43621 2.61901,4.57471 4.98987,5.24568 1.52576,0.43179 4.48271,0.2806 6.19601,-0.31678 1.68747,-0.58838 3.40063,-2.50066 4.02869,-4.4974 0.56343,-1.79131 0.46016,-5.03238 -0.20619,-6.47505 -1.37913,-2.9859 -2.4951,-3.95532 -5.20847,-4.52376 -0.5503,-0.11529 -1.1235,-0.16423 -1.75906,-0.14263 z m -0.19069,4.13722 c 0.85987,0 1.38915,0.94455 1.58647,2.83238 0.23377,2.23662 -0.0736,3.97832 -0.83664,4.74132 -0.76225,0.76225 -1.02965,0.78004 -1.69602,0.11368 -0.67361,-0.67363 -0.88658,-1.91196 -0.76998,-4.47931 0.10478,-2.30747 0.58662,-3.20807 1.71617,-3.20807 z"
           style="fill:#000000;stroke-width:0.26458332" />
        <path
           inkscape:connector-curvature="0"
           id="path874-5"
           d="m 172.23088,153.81839 c -0.69541,-0.18702 -1.5702,-0.62547 -1.94398,-0.97433 -0.86436,-0.80672 -1.68643,-2.40051 -1.68643,-3.26956 v -0.672 h 2.87999 c 2.78002,0 2.89503,0.023 3.31339,0.66146 0.64118,0.97856 2.27329,0.77124 2.27329,-0.28878 0,-0.38746 -1.71593,-1.09663 -3.23705,-1.33782 -4.1386,-0.65622 -6.18665,-3.64821 -4.71541,-6.88872 1.35554,-2.98568 7.04819,-4.17657 10.85547,-2.27092 1.61846,0.81008 2.65324,2.09114 2.65324,3.28474 v 0.75462 h -2.39056 c -1.72584,0 -2.56669,-0.1154 -3.02398,-0.41503 -0.76965,-0.50429 -2.39067,-0.41372 -2.39067,0.13358 0,0.25445 0.87417,0.63025 2.64583,1.13744 4.22389,1.2092 5.52234,2.40717 5.52464,5.09714 0.002,2.64652 -1.52377,4.34969 -4.53146,5.05745 -1.88615,0.44385 -4.55631,0.43987 -6.22631,-0.009 z"
           style="fill:#000000;stroke-width:0.26458332" />
        <path
           inkscape:connector-curvature="0"
           id="path880-9"
           d="m 118.18811,153.65004 c -0.095,-0.15375 -0.13182,-2.6243 -0.0818,-5.4901 l 0.091,-5.21056 -1.78594,-0.0782 -1.78594,-0.0782 v -2.23687 -2.23687 h 6.87917 6.87916 v 2.24896 2.24896 h -1.85208 -1.85208 v 5.55625 5.55625 h -3.15939 c -1.93359,0 -3.22641,-0.10846 -3.33215,-0.27954 z"
           style="fill:#000000;stroke-width:0.26458332" />
        <path
           inkscape:connector-curvature="0"
           id="path882-1"
           d="m 154.18187,153.66694 c -0.0893,-0.14447 -0.56241,-2.11867 -1.05138,-4.38715 -0.48897,-2.26846 -0.95873,-4.19417 -1.0439,-4.27934 -0.0852,-0.0852 -0.15487,1.82951 -0.15487,4.25485 v 4.40972 h -2.73511 -2.7351 l -0.0619,-7.67939 -0.0618,-7.6794 4.44899,0.0726 4.44899,0.0726 0.63307,3.40824 c 0.36063,1.94149 0.71672,3.25093 0.82745,3.04271 0.10691,-0.20105 0.53189,-1.76452 0.9444,-3.47439 l 0.75002,-3.10885 h 4.17882 4.17883 v 7.80521 7.80519 h -2.63022 c -1.81572,0 -2.69529,-0.10241 -2.84034,-0.33073 -0.11557,-0.1819 -0.25654,-1.69994 -0.31328,-3.37343 -0.11557,-3.40886 -0.19272,-3.3627 -1.24814,0.74684 -0.34842,1.35664 -0.70172,2.57703 -0.78512,2.71197 -0.20431,0.33059 -4.54419,0.31476 -4.74942,-0.0173 z"
           style="fill:#000000;stroke-width:0.26458332" />
      </g>
      <g
         id="g1857">
        <path
           inkscape:connector-curvature="0"
           id="path870-5"
           d="m 189.17696,154.30482 c -0.20645,-0.53801 -0.20124,-2.71006 0.008,-3.49246 0.15768,-0.58857 0.23536,-0.6018 3.10525,-0.52917 l 2.94351,0.0745 0.0767,2.01692 c 0.0911,2.39752 0.17904,2.33952 -3.55409,2.3451 -1.96405,0.003 -2.44929,-0.0751 -2.57969,-0.41489 z"
           style="fill:#000000;stroke-width:0.26458332" />
        <path
           inkscape:connector-curvature="0"
           id="path884-2"
           d="m 189.69685,148.13955 c -0.0795,-0.12858 -0.32246,-2.59343 -0.53998,-5.47744 -0.31229,-4.14063 -0.32693,-5.28721 -0.0696,-5.4507 0.17926,-0.11386 1.79816,-0.20885 3.59756,-0.21108 l 3.27163,-0.004 -0.15475,1.38906 c -0.0851,0.76399 -0.29233,3.23453 -0.46049,5.49011 -0.18011,2.41588 -0.42803,4.1809 -0.60334,4.29541 -0.42416,0.27707 -4.86755,0.24946 -5.04107,-0.0313 z"
           style="fill:#000000;stroke-width:0.26458332" />
      </g>
    </g>
    <g
       transform="matrix(0.19198515,0,0,0.19198515,10.992028,274.31323)"
       id="g1916">
      <path
         id="path1910"
         class="st0"
         d="m -33.891238,102.46041 h 11.475082 c 4.263469,0 7.755885,-3.447063 7.755885,-7.755888 0,-4.308825 -3.44706,-7.710529 -7.710529,-7.710529 h -3.67384 l -7.846598,-6.803408 h 14.309903 c 8.028022,-0.04536 14.5592934,6.44056 14.5592934,14.468581 0.045356,5.941644 -3.5831283,11.293654 -9.1165674,13.516104 l 9.0712113,7.8466 H -18.243399 Z"
         style="fill:url(#linearGradient1946);stroke-width:0.45356053"
         inkscape:connector-curvature="0"
         sodipodi:nodetypes="cssscccccccc" />
      <path
         id="path1912"
         class="st1"
         d="m -25.432266,93.797401 h -11.475082 c -4.263469,0 -7.755885,3.44706 -7.755885,7.755889 0,4.30882 3.44706,7.75588 7.755885,7.75588 h 3.673841 l 7.801241,6.80341 h -11.475082 c -8.028021,0 -14.559293,-6.48592 -14.604649,-14.46858 -0.04536,-5.987001 3.583128,-11.339015 9.116567,-13.561462 l -9.071211,-7.891953 h 10.386536 z"
         inkscape:connector-curvature="0"
         style="fill:#4971fa;stroke-width:0.45356053" />
      <path
         id="path1914"
         class="st2"
         d="m -25.432266,93.797401 h -11.475082 c -4.263469,0 -7.755885,3.44706 -7.755885,7.755889 0,4.30882 3.44706,7.75588 7.755885,7.75588 h 3.673841 l 7.801241,6.80341 h -14.120915 c -8.028021,0 -14.559293,-6.48592 -14.604649,-14.46858 -0.04536,-5.987001 3.583128,-11.339015 9.116567,-13.561462 l -9.071211,-7.891953 h 13.032369 z"
         style="fill:url(#linearGradient1948);stroke-width:0.45356053"
         inkscape:connector-curvature="0"
         sodipodi:nodetypes="csssccsccccc" />
    </g>
  </g>
</svg>
